inDegrees=no
nColumns=32
nRows=17
DataType=double
version=3
OpenSimVersion=4.5
endheader
time	pelvis_tilt	pelvis_list	pelvis_rotation	pelvis_tz	pelvis_ty	pelvis_tx	hip_flexion_r	hip_adduction_r	hip_rotation_r	knee_angle_r	ankle_angle_r	subtalar_angle_r	mtp_angle_r	hip_flexion_l	hip_adduction_l	hip_rotation_l	knee_angle_l	ankle_angle_l	subtalar_angle_l	mtp_angle_l	lumbar_extension	lumbar_bending	lumbar_rotation	arm_flex_r	arm_add_r	arm_rot_r	elbow_flex_r	arm_flex_l	arm_add_l	arm_rot_l	elbow_flex_l
0	-0.05760543553534051	0.09071500118159165	0.005224248533139771	0	0.89887584	-0	0.4895246932384588	-0.113145213924872	-0.1238168776180135	-0.1076953057003281	-0.01023875641426701	0.05130017420094397	0	-0.2315416879348137	0.1058778535095219	-0.2069370126519141	-0.1054380418826595	0.3022663104888145	0.3186162521068722	0	-0.1401104636017219	-0.05473454339309487	-0.1018625045264879	-0.1395974799186342	-0.05325386382610112	-0.4161905692295409	0.433349837125975	-0.07686333666155025	-0.100898373477579	-0.2855023453562573	0.9949779652964382
0.01000000000000001	-0.05621240190476419	0.08923243617304168	0.005014559654612311	0.00153433	0.89833588	0.01284455	0.4937717851197106	-0.1099789625614784	-0.1192672199954921	-0.1428331411065175	-0.02001984787968709	0.04130816510594106	0	-0.2411211378465595	0.09981008878139536	-0.2055441419958516	-0.1178821806317833	0.2930299889918853	0.3249210667558729	0	-0.1391666771577717	-0.05186656530820852	-0.1034271017928456	-0.137119913137863	-0.05272200248729095	-0.4164702612092327	0.43276636500492	-0.08359134146881501	-0.1009225637410116	-0.2871208649189212	0.9825171047222839
0.02000000000000002	-0.05902677168520033	0.08664903293215143	0.005114114401859324	0.003304059999999998	0.89788561	0.02566232	0.4971239049727295	-0.1042015392885405	-0.1145233969371473	-0.1605240640438441	-0.05364646394763125	0.02125063696396682	0	-0.2420982511780434	0.09193215320156894	-0.2002111820012986	-0.137756913808945	0.2834399688425907	0.3268813755422183	0	-0.1326773272761613	-0.04835079378521169	-0.1030064409657335	-0.1343424748805885	-0.05217465396936321	-0.4168173337190929	0.429747476851727	-0.08811804312475077	-0.09930904384852304	-0.2927390085716574	0.9604500903497626
0.03000000000000003	-0.05916954705808447	0.08215415605828608	0.00486119724768799	0.00539653000000001	0.89821079	0.0384373	0.4943956537589676	-0.0968030130165799	-0.1123180570137914	-0.1730723155225737	-0.06126687916338561	0.01788741262811498	0	-0.2431644893987147	0.08133981472293061	-0.1968366582293364	-0.161636049962204	0.2675616811618676	0.3241812407100414	0	-0.1307597441499048	-0.04263811664246919	-0.1045893441179508	-0.1303644923496421	-0.05092633078381917	-0.4170357930909065	0.4316972368680733	-0.09767909848791098	-0.1001399900439427	-0.2951935907624432	0.9462902541996191
0.04000000000000004	-0.06385644953706102	0.0733644573148185	0.004686933517393636	0.007878529999999995	0.89866429	0.05106985	0.489915130373447	-0.08465634713796849	-0.1109321950764061	-0.1757589486621901	-0.08374617887700447	0.01883061403769979	0	-0.2331168812695932	0.06522589834294328	-0.1916767041714202	-0.1962451235598018	0.254413304852091	0.3192523888399744	0	-0.1225685762490851	-0.03323378678468324	-0.1010685205649011	-0.1285798787032451	-0.05055482401349694	-0.4180907388567844	0.4306814042797985	-0.1000144807994379	-0.09798332054664079	-0.3012411934470507	0.9197605863441894
0.05000000000000004	-0.06772625814409741	0.06666733297443771	0.004518668493960269	0.01039065	0.89971207	0.0637395	0.4841794670699228	-0.07540312334896417	-0.1118142768009153	-0.1821418858193065	-0.1083984355005048	0.02257722472742757	0	-0.2203699202157997	0.05102471569188579	-0.1863716804404734	-0.2359976920623377	0.2307396286838438	0.312492535962651	0	-0.1158176744673634	-0.02624119407707341	-0.0989485488840504	-0.1260453635743106	-0.04928603649340741	-0.4195338283950134	0.4314529783883225	-0.1047623929896872	-0.09704726451501365	-0.3068057380384583	0.894866104549517
0.06000000000000005	-0.07167736146333339	0.06006624260608795	0.00431016168853848	0.01273193	0.90118441	0.07646185	0.475909363686622	-0.06668753636779777	-0.1119053191088188	-0.1860474792487301	-0.1184447674448773	0.02190920397048401	0	-0.2035345981694392	0.03660230784574903	-0.1816741977936312	-0.2814392452120862	0.2006594953014804	0.3051848542527897	0	-0.1083243265515371	-0.01884288876379614	-0.09500284813748178	-0.1241348800983854	-0.04857057280047275	-0.4215464623268664	0.4323938660149179	-0.1078230123143612	-0.09502938778862055	-0.3127388926772285	0.8657814382065186
0.06999999999999984	-0.07424949966236365	0.05540162885581875	0.004118991219395281	0.01485825999999998	0.90314247	0.08906938	0.4664335849361813	-0.05939962923836152	-0.1047232419384394	-0.1894864424965381	-0.1171788385995696	0.005126720894563108	0	-0.1843759114506494	0.02396551790846087	-0.1763682382171394	-0.3313385066288403	0.1595416203022916	0.2979208745402007	0	-0.1027292448068721	-0.01351825713136776	-0.09079404790735421	-0.1217259490885806	-0.04757580616173653	-0.423832012870255	0.4346390104407937	-0.1099176283754377	-0.09221207905538054	-0.3194107827055807	0.8355274848659552
0.07999999999999985	-0.07814215418629468	0.05439065371540134	0.004256752760794603	0.01696262000000001	0.90497047	0.10154587	0.4642592783631892	-0.05522836318646271	-0.08604693821949497	-0.2048159648010466	-0.1164139662063073	-0.03763481949848765	0	-0.1579762502041412	0.01424050928242806	-0.1692717221481476	-0.3897639337449102	0.1183466408455399	0.2962230089936156	0	-0.09581964669398479	-0.01280963111484364	-0.08594892122683466	-0.1202128320538398	-0.04503869136488124	-0.425756716241728	0.4393964742944403	-0.1098436829638209	-0.0894735789191851	-0.3299887339115961	0.8007661770187473
0.08999999999999986	-0.08174542518345937	0.05228104274157432	0.004281307060627245	0.0191037	0.90678128	0.11380732	0.4651575300396194	-0.04938772059735907	-0.06496736795683312	-0.2290044904093519	-0.1045907028567734	-0.06765665591677469	0	-0.1268883703439274	0.002685447886521347	-0.1619913160947706	-0.4523172308718243	0.06181670290725853	0.2990826330600372	0	-0.0899238756115289	-0.01121044613510043	-0.08085109652696634	-0.1182855726476773	-0.0435130645081938	-0.4259803033908839	0.4448989940730222	-0.1126952898603236	-0.0873375907008547	-0.3384249537188445	0.7744629085614976
0.09999999999999987	-0.08684056659842397	0.0503578684478182	0.00438225439451597	0.02089495999999999	0.90835918	0.12575581	0.4650311812917444	-0.04338209377939367	-0.04508268361040824	-0.2476528397132659	-0.08904010999335733	-0.08143905903112092	0	-0.088242272693848	-0.007624831247827766	-0.1516781229587023	-0.5204172253768139	0.0005555897881227289	0.2897099922728151	0	-0.08336707783004096	-0.009055292281720957	-0.07447550982399477	-0.1169020520694836	-0.04306296765604937	-0.4241899575596246	0.4520719642898976	-0.1155295368394212	-0.08498427181513794	-0.3467661415700522	0.7495993428310631
0.1099999999999999	-0.0910417613291646	0.04483090618015627	0.004091408266063904	0.02278337	0.9098715000000001	0.13742721	0.4614806880140755	-0.03425598214527917	-0.03447926892327088	-0.2608294699365726	-0.07569411633556264	-0.08571012789657069	0	-0.04803974626737609	-0.02214911640586438	-0.1417722366120403	-0.588936624071854	-0.06384111449543696	0.2746894377518055	0	-0.07863677828087229	-0.003393019724177266	-0.06696151239418931	-0.1163101915469776	-0.04420494025082069	-0.4190361543910583	0.4629304068364022	-0.1180129174864637	-0.08197343434218565	-0.3557708297754408	0.7265777799653582
0.1199999999999999	-0.09540692635788749	0.03676819604917407	0.003517819003900321	0.02458679	0.91125934	0.14876779	0.4542788350415405	-0.02338488212197325	-0.03208025574694059	-0.2658380962688922	-0.06531726406035716	-0.08741276691866	0	-0.00691769085556294	-0.0380991072737142	-0.1302619422133156	-0.6539186939841742	-0.1225949022719234	0.2578244402212393	0	-0.07462969587530736	0.004904583066817978	-0.05787500559692814	-0.1151139645197434	-0.04634529039601766	-0.4120253640080026	0.4747914134546093	-0.119344091277067	-0.07885636286645469	-0.3646909733591982	0.7039639092577581
0.1299999999999999	-0.0966619506565555	0.03125458741574131	0.00303007451704817	0.02621472999999999	0.91295163	0.16005715	0.4395667882352389	-0.01568914059009791	-0.03410205475176171	-0.2625268241016869	-0.05231649670313987	-0.08511124434368759	0	0.02832692711038896	-0.04991413668343594	-0.1185715924931052	-0.7102462114283361	-0.1691967674126244	0.2476898188767925	0	-0.07434388930911411	0.0101053921409307	-0.04915107716366769	-0.1125475859618528	-0.04844155736403363	-0.4058979847667473	0.4854720861882837	-0.1232238524372977	-0.07677625136412689	-0.370804095005794	0.6885683299062531
0.1399999999999999	-0.1018197668194682	0.02225607931840592	0.00227378403377011	0.02792991	0.91384898	0.17056573	0.4292681424184861	-0.004186801751169594	-0.03694198975889163	-0.2572306676905378	-0.04652752336481106	-0.07952624431891379	0	0.07149016183757029	-0.06676593900125831	-0.1119323760755478	-0.771716979431341	-0.169267453596396	0.2372823594606265	0	-0.07145266658018384	0.01855581700842811	-0.03691111226642997	-0.114070005077908	-0.05270948969828463	-0.3895848357365192	0.5053579289097331	-0.1201137631512393	-0.07154171450035109	-0.3850216769450361	0.6662355940420374
0.1499999999999999	-0.1000422950025099	0.01709026794065726	0.001715394494139694	0.02975724999999999	0.91548504	0.18142598	0.4081278812981459	0.003401091871967739	-0.03850580599040902	-0.2467387299752521	-0.03182345760011303	-0.0736967037691821	0	0.1024724360135361	-0.07822676361313162	-0.1068861064819213	-0.8235343639792223	-0.1476636736928977	0.21913006379699	0	-0.0760292122215627	0.02198891647354818	-0.03021905775109779	-0.1070979751414135	-0.05376813975096696	-0.3831026352471237	0.5147879482687792	-0.1258515185809379	-0.07088749720339571	-0.3901105118029933	0.6552795872412805
0.1599999999999999	-0.1057235593747275	0.005535314094314955	0.0005874033764054791	0.03168524	0.91602273	0.1917631	0.3962785652443346	0.01734693390065601	-0.04600066588496635	-0.2371599661524353	-0.02390070109243079	-0.06872906736701023	0	0.1457031863593699	-0.100081341570555	-0.110065074314245	-0.8802612953103141	-0.1183510532124219	0.2047125542173989	0	-0.07253224121073543	0.03197067175919562	-0.01605056092813994	-0.1105292304916459	-0.06072597911344522	-0.3606676813827383	0.5385738297347749	-0.1227660160971182	-0.06721392400500784	-0.4049616767095762	0.6345307376732497
